:SAMPLES-PER-SECOND 30
:FULLY-SPECIFIED
:DEGREES
122
root  34.75166081 36.55567019 -14.22245747 10.0762291 -4.764116287 4.31360054
lowerback  -7.587240696 -0.2943830788 -0.889829278
upperback  -4.154160023 0.2331420034 -4.639689922
thorax  -0.02377440035 0.3102869987 -4.28426981
lowerneck  -4.069149971 -16.06900024 -11.06900024
upperneck  7.770480156 -21.96479797 12.21560001
head  5.570690155 -10.5017004 3.700779915
lclavicle  0 -4.497500157e-015 -2.743230041e-014
lhumerus  -48.13700104 29.99349976 61.32519913
lradius  0.006620147731 -6.507048965e-006 29.09379768
lwrist  4.824992743e-007 -3.790274832e-007 -30.51959991
lhand  -3.526859336e-031 -36.84529877 -10.55770016
lfingers  90 7.125020027 -90
lthumb  94.76564026 -25.39764977 100.9998856
rclavicle  0 -4.497500157e-015 -2.743230041e-014
rhumerus  21.12269974 -42.50669861 -33.75630188
rradius  -5.16745672e-007 2.214343908e-008 71.11160278
rwrist  -2.867388866e-005 0.09434001893 -171.7389984
rhand  -3.161327727e-031 4.666210175 -5.528580189
rfingers  -90 -7.125020027 -90
rthumb  -83.97920227 -10.27595234 -59.4066391
rfemur  -12.07725239 14.44130325 11.94213963
rtibia  -0.7639405131 -2.00786829 19.20762444
rfoot  1.17705071 -22.87210655 -34.33468246
rtoes  4.088436127 19.59424591 -102.0318832
lfemur  -4.059317112 -16.45833015 -23.35984802
ltibia  7.04753685 -0.7932363153 7.121850967
lfoot  0.7494476438 -20.68356323 36.49856949
ltoes  -8.502608299 -18.16701698 -115.6134491
123
root  34.75471557 36.55579034 -14.22306571 10.09014034 -4.707603455 4.336063385
lowerback  -7.588640213 -0.2912010252 -0.8898014426
upperback  -4.13710022 0.2374060005 -4.646830082
thorax  -0.005030780099 0.312240988 -4.291329861
lowerneck  -4.065149784 -16.06579971 -11.08040047
upperneck  7.724840164 -21.95870209 12.2354002
head  5.558730125 -10.5024004 3.710419893
lclavicle  0 -4.497500157e-015 -2.743230041e-014
lhumerus  -48.12110138 29.99040031 61.33890152
lradius  0.006620147731 -6.507048965e-006 29.083498
lwrist  4.824992743e-007 -3.790274832e-007 -30.46820068
lhand  -3.522714218e-031 -36.83779907 -10.6086998
lfingers  90 7.125020027 -90
lthumb  94.77290344 -25.44792175 100.9964981
rclavicle  0 -4.497500157e-015 -2.743230041e-014
rhumerus  22.08790588 -42.728405 -33.88320541
rradius  -5.16745672e-007 2.214343908e-008 69.75450134
rwrist  -2.867388866e-005 0.09382946044 -171.3600006
rhand  -3.160907637e-031 4.745969772 -5.534170151
rfingers  -90 -7.125020027 -90
rthumb  -83.96118927 -10.27509785 -59.32896423
rfemur  -12.10119057 14.41723347 11.92805481
rtibia  -0.7855706811 -2.014880896 19.23626328
rfoot  1.1563375 -22.86039352 -34.37242508
rtoes  4.083323002 19.59565353 -102.0166321
lfemur  -4.122934341 -16.51024055 -23.35747147
ltibia  7.015630722 -0.7843796611 7.189052105
lfoot  0.7645132542 -20.73727989 36.50242996
ltoes  -8.512215614 -18.16562653 -115.6442642
124
root  34.75836206 36.55593752 -14.22444892 10.09032726 -4.658765316 4.364775658
lowerback  -7.588689804 -0.2794020474 -0.8981599212
upperback  -4.125239849 0.2536469996 -4.650489807
thorax  0.008406889625 0.3203940094 -4.289110184
lowerneck  -4.069479942 -16.0821991 -11.07479954
upperneck  7.677680016 -21.97920227 12.2524004
head  5.548510075 -10.51229954 3.713089943
lclavicle  0 -4.497500157e-015 -2.743230041e-014
lhumerus  -48.11059952 30.07089996 61.29660034
lradius  0.006620147731 -6.507048965e-006 29.05699921
lwrist  4.824992743e-007 -3.790274832e-007 -30.59499931
lhand  -3.515983174e-031 -36.91009903 -10.67959976
lfingers  90 7.125020027 -90
lthumb  94.82177734 -25.51501465 101.0802536
rclavicle  0 -4.497500157e-015 -2.743230041e-014
rhumerus  23.10610008 -42.98659897 -34.08269882
rradius  -5.16745672e-007 2.214343908e-008 68.32959747
rwrist  -2.867388866e-005 0.09331576526 -170.875
rhand  -3.168657042e-031 4.693520069 -5.419750214
rfingers  -90 -7.125020027 -90
rthumb  -83.91567993 -10.37096691 -59.36972046
rfemur  -12.11830616 14.36813831 11.90552235
rtibia  -0.8059056997 -2.024494886 19.27938843
rfoot  1.129067302 -22.86445236 -34.39118195
rtoes  4.07987833 19.59697342 -102.0063629
lfemur  -3.973936081 -16.55329704 -23.44590569
ltibia  7.133379936 -0.7935881615 6.929413319
lfoot  0.7481428981 -20.62123108 36.52820969
ltoes  -8.515622139 -18.16407204 -115.6551895
125
root  34.76279852 36.55609672 -14.22572249 10.07588291 -4.616401196 4.380776405
lowerback  -7.599840641 -0.2688270509 -0.9265038967
upperback  -4.1167202 0.2715910077 -4.662129879
thorax  0.02464229986 0.330336988 -4.283790112
lowerneck  -4.101329803 -16.10400009 -10.99820042
upperneck  7.621970177 -22.00440216 12.23330021
head  5.528550148 -10.52330017 3.694489956
lclavicle  0 -4.497500157e-015 -2.743230041e-014
lhumerus  -48.07740021 30.05990028 61.27500153
lradius  0.006620147731 -6.507048965e-006 29.05279922
lwrist  4.824992743e-007 -3.790274832e-007 -30.65509987
lhand  -3.516389895e-031 -36.86629868 -10.68089962
lfingers  90 7.125020027 -90
lthumb  94.80151367 -25.51787376 101.033493
rclavicle  0 -4.497500157e-015 -2.743230041e-014
rhumerus  24.07990074 -43.20349884 -34.31519699
rradius  -5.16745672e-007 2.214343908e-008 67.07730103
rwrist  -2.867388866e-005 0.09279876947 -170.552002
rhand  -3.164029096e-031 4.636089802 -5.488780022
rfingers  -90 -7.125020027 -90
rthumb  -83.96649933 -10.30875301 -59.43245316
rfemur  -12.12639427 14.38598824 11.90504169
rtibia  -0.8253464699 -1.985369802 19.32768059
rfoot  1.12056613 -22.77464867 -34.41348267
rtoes  4.079629898 19.59826088 -102.0056229
lfemur  -3.780676365 -16.54245567 -23.53904343
ltibia  7.270659447 -0.789511025 6.624862671
lfoot  0.7244814038 -20.52105904 36.52434921
ltoes  -8.559300423 -18.14407349 -115.7953796
126
root  34.76482902 36.55625291 -14.22700807 10.08477402 -4.571528435 4.384385586
lowerback  -7.587259293 -0.2550319731 -0.9558226466
upperback  -4.105559826 0.2922419906 -4.673099995
thorax  0.03067190014 0.3412410021 -4.276989937
lowerneck  -4.105500221 -16.11829948 -10.91499996
upperneck  7.528820038 -22.01659775 12.19750023
head  5.488180161 -10.53149986 3.675750017
lclavicle  0 -4.497500157e-015 -2.743230041e-014
lhumerus  -48.06269836 30.07169914 61.27130127
lradius  0.006620147731 -6.507048965e-006 29.05457115
lwrist  4.824992743e-007 -3.790274832e-007 -30.75359917
lhand  -3.528256812e-031 -36.80270004 -10.54679966
lfingers  90 7.125020027 -90
lthumb  94.74346924 -25.3883934 100.9533539
rclavicle  0 -4.497500157e-015 -2.743230041e-014
rhumerus  24.93059921 -43.36249924 -34.37049866
rradius  -5.16745672e-007 2.214343908e-008 65.91210175
rwrist  -2.867388866e-005 0.09227830172 -170.2749939
rhand  -3.160056937e-031 4.407390118 -5.549409866
rfingers  -90 -7.125020027 -90
rthumb  -84.05735779 -10.24530888 -59.66218948
rfemur  -12.15724087 14.41755009 11.91603374
rtibia  -0.8431949019 -1.941414952 19.36925507
rfoot  1.11775291 -22.67288208 -34.43883514
rtoes  4.043436527 19.59952545 -101.897728
lfemur  -3.90659976 -16.62765694 -23.48808289
ltibia  7.188319683 -0.8103331327 6.810334206
lfoot  0.7342332006 -20.53088188 36.53667068
ltoes  -8.574203491 -18.13722229 -115.8432388
127
root  34.76614464 36.55638207 -14.22844534 10.07164383 -4.513876438 4.411273003
lowerback  -7.58465004 -0.2424649447 -0.9627764821
upperback  -4.102592468 0.3095990121 -4.675600052
thorax  0.03540939838 0.350086987 -4.274300098
lowerneck  -4.114170074 -16.12879944 -10.92109966
upperneck  7.476759911 -22.02980042 12.23849964
head  5.480510235 -10.53660011 3.687419891
lclavicle  0 -4.497500157e-015 -2.743230041e-014
lhumerus  -48.06769943 30.12050056 61.25839996
lradius  0.006620147731 -6.507048965e-006 29.05801392
lwrist  4.824992743e-007 -3.790274832e-007 -30.8029995
lhand  -3.522679393e-031 -36.8030014 -10.61400032
lfingers  90 7.125020027 -90
lthumb  94.75775146 -25.45434189 100.9597626
rclavicle  0 -4.497500157e-015 -2.743230041e-014
rhumerus  25.73460197 -43.52859879 -34.34859848
rradius  -5.16745672e-007 2.214343908e-008 64.65570068
rwrist  -2.867388866e-005 0.09173230082 -169.8410034
rhand  -3.171636584e-031 4.488649845 -5.377150059
rfingers  -90 -7.125020027 -90
rthumb  -83.94758606 -10.39783764 -59.56669617
rfemur  -12.14766788 14.41942215 11.90845013
rtibia  -0.8642094135 -1.948801398 19.39816666
rfoot  1.096488118 -22.67555618 -34.48637772
rtoes  4.052779198 19.60078049 -101.9255753
lfemur  -3.724363804 -16.72182465 -23.58327484
ltibia  7.314478874 -0.8418595195 6.531320572
lfoot  0.7057901621 -20.3631134 36.56350327
ltoes  -8.559267998 -18.13681602 -115.7952728
